<?xml version="1.0" encoding="UTF-8" standalone="no"?>
<!-- Created with Inkscape (http://www.inkscape.org/) -->

<svg
   width="153.228mm"
   height="149.70599mm"
   viewBox="0 0 153.228 149.70599"
   version="1.1"
   id="svg1"
   inkscape:version="1.4.2 (ebf0e940d0, 2025-05-08)"
   sodipodi:docname="Jolatre_plexilamp.svg"
   xmlns:inkscape="http://www.inkscape.org/namespaces/inkscape"
   xmlns:sodipodi="http://sodipodi.sourceforge.net/DTD/sodipodi-0.dtd"
   xmlns="http://www.w3.org/2000/svg"
   xmlns:svg="http://www.w3.org/2000/svg">
  <sodipodi:namedview
     id="namedview1"
     pagecolor="#ffffff"
     bordercolor="#000000"
     borderopacity="0.25"
     inkscape:showpageshadow="2"
     inkscape:pageopacity="0.0"
     inkscape:pagecheckerboard="0"
     inkscape:deskcolor="#d1d1d1"
     inkscape:document-units="mm"
     inkscape:zoom="0.89684458"
     inkscape:cx="3.3450612"
     inkscape:cy="309.97567"
     inkscape:window-width="1920"
     inkscape:window-height="1128"
     inkscape:window-x="0"
     inkscape:window-y="0"
     inkscape:window-maximized="1"
     inkscape:current-layer="layer1" />
  <defs
     id="defs1" />
  <g
     inkscape:label="Layer 1"
     inkscape:groupmode="layer"
     id="layer1"
     transform="translate(-19.350977,-67.760505)">
    <path
       id="path3"
       style="fill:none;stroke:#ff0000;stroke-width:0.02;stroke-dasharray:none;stroke-opacity:1"
       d="m 98.848444,68.271022 c -0.41211,0.0531 -3.35853,3.47421 -6.58668,7.64708 -6.36769,8.23131 -16.12623,18.42658 -23.59804,24.654828 -3.87431,3.22955 -4.41585,4.04125 -3.25355,4.88187 0.76688,0.55454 3.79939,0.86017 6.73913,0.67748 2.93971,-0.18269 5.34489,0.0174 5.34489,0.44287 0,1.33424 -4.56229,8.07413 -8.16643,12.06438 -1.899,2.10249 -6.34161,5.8511 -9.87278,8.33127 -3.12556,2.19528 -5.35874,4.03751 -5.40845,4.43177 v 0.002 0.002 c -0.004,0.0485 0.0282,0.0744 0.0946,0.0744 0.0105,0 0.021,1.4e-4 0.0315,0 h 0.002 l 1.96784,1.16221 c 0.0734,0.32111 1.90294,0.26599 5.08393,-0.23255 2.55631,-0.40087 4.84718,-0.53915 5.09065,-0.30851 1.19951,1.13739 -5.84334,11.77875 -11.83391,17.88108 -3.31904,3.38101 -5.98293,6.33028 -6.38721,7.0497 l -2.92075,2.20607 c -4.13879,1.98339 -9.51208,7.25904 -9.51208,10.01644 0,2.98352 2.75302,2.88537 13.94385,-0.49764 4.85694,-1.46824 8.98561,-2.52674 9.17567,-2.35283 0.80068,0.73297 -4.71788,8.72112 -8.19536,11.86284 -1.74719,1.57845 -2.8154,2.59081 -3.29696,3.23701 l -4.80436,3.4184 c -1.37563,0.65143 -2.94438,1.54462 -4.70204,2.67787 -3.46695,2.23533 -8.9181,5.37814 -12.11347,6.98459 -3.19533,1.60645 -5.80946,3.35505 -5.80946,3.88503 0,1.75426 7.95302,4.21321 19.37091,6.4854 h -0.69608 v 12.0003 H 158.53572 v -11.99669 c 7.83533,-1.83596 13.00874,-3.74556 13.52734,-5.32887 0.19885,-0.60664 -4.68835,-4.45265 -10.85877,-8.54728 -2.78189,-1.84605 -4.88957,-3.23242 -6.53604,-4.25556 h -0.002 l -0.002,-0.002 h -0.002 l -5.37952,-4.25349 0.007,-0.002 -4.20646,-4.49688 c -2.31357,-2.47339 -5.09086,-6.23018 -6.1712,-8.34781 -2.4079,-4.71982 -2.23274,-4.74946 9.22837,-1.52704 9.55557,2.68665 12.85175,2.8999 13.62605,0.88212 0.57674,-1.50295 -0.81596,-3.35186 -3.39721,-4.9165 -0.002,-0.001 -0.004,-0.002 -0.007,-0.003 l -3.77651,-3.05201 c 0.0246,0.003 0.0462,0.007 0.0599,0.0103 0.003,1.4e-4 0.007,1.1e-4 0.0103,0 h 0.002 0.002 l 0.002,-0.002 h 0.002 l 0.002,-0.002 h 0.002 l 0.002,-0.002 v -0.002 l 0.002,-0.002 v -0.002 -0.002 -0.002 l 0.002,-0.002 c -0.007,-0.18058 -1.60666,-1.60968 -3.74551,-3.33881 -11.07219,-8.95097 -25.85273,-25.83559 -24.12669,-27.56163 0.23399,-0.23398 2.71337,0.16801 5.50819,0.89297 6.36031,1.6497 10.34007,1.67485 12.52379,0.078 1.5528,-1.13546 1.12875,-1.61851 -5.01985,-5.70611 -3.69422,-2.45589 -9.12647,-6.69598 -12.07162,-9.42268 l -4.439,-4.11034 -1.32912,-2.04639 0.0362,-0.0351 -2.24947,-3.30781 c -1.2364,-1.81949 -2.05928,-3.49594 -1.82986,-3.72535 0.22941,-0.22942 2.84196,0.0971 5.80584,0.72605 5.87703,1.24718 10.95766,1.05272 10.86807,-0.41548 -0.0316,-0.51125 -3.65261,-3.345828 -8.04653,-6.299868 -8.63302,-5.80402 -18.25129,-15.35487 -23.64042,-23.47144 -1.85793,-2.79826 -3.686286,-5.08703 -4.061256,-5.08703 -0.002,0 -0.007,-7e-5 -0.0103,0 z" />
    <path
       id="path1"
       style="fill:#1a1a1a;stroke:none;stroke-width:3.51329"
       d="m 122.35106,109.53685 0.4412,1.17828 -2.3717,2.52674 c -2.55595,2.72069 -2.51196,3.38368 0.38488,5.69356 3.0657,2.44451 2.27436,5.37895 -1.33803,4.96006 -2.11222,-0.24488 -2.43829,-0.71745 -2.43829,-3.53669 0,-2.45262 -0.34325,-3.15278 -1.39432,-2.84678 -0.76688,0.2231 -3.56739,0.35151 -6.22368,0.28669 -3.7922,-0.0924 -4.72273,0.16231 -4.33005,1.18556 0.27509,0.71678 1.25965,1.54472 2.18772,1.83913 2.32738,0.73867 2.907,2.74173 1.38525,4.78942 -1.8438,2.48104 -4.62741,0.56223 -4.66957,-3.21898 -0.0176,-1.58035 -0.28598,-3.12728 -0.5955,-3.4368 -0.71664,-0.71664 -9.133986,5.16924 -9.133986,6.38708 0,0.5004 0.68582,1.66723 1.52325,2.59259 1.26391,1.39661 1.31759,1.92992 0.31409,3.13905 -0.66489,0.80114 -2.08271,1.33259 -3.14998,1.18012 -2.39026,-0.34149 -3.05097,-3.69556 -1.05483,-5.35221 1.7538,-1.45538 1.8658,-2.82679 0.23258,-2.82679 -0.66313,0 -2.83069,-1.66628 -4.81843,-3.70191 -3.92336,-4.01787 -5.23926,-4.32598 -2.84134,-0.6663 1.38543,2.11567 1.38448,2.41911 0.007,3.79811 -1.87662,1.87553 -2.67965,1.88203 -4.21749,0.0281 -0.95667,-1.15268 -0.97996,-1.85182 -0.11242,-3.24073 3.5273,-5.64813 -0.80145,-6.03607 -6.18195,-0.55376 -4.08749,4.16507 -4.06877,5.00257 0.14897,6.51054 2.67052,0.9548 1.68746,4.79486 -1.2273,4.79486 -1.94239,0 -2.3709,-0.49601 -2.61437,-3.02107 -0.16021,-1.66161 -0.46759,-3.02108 -0.68084,-3.02108 -0.21326,0 -2.59102,1.39295 -5.28504,3.09552 -2.69402,1.70258 -5.68973,3.38551 -6.6576,3.74 -0.66011,0.24171 -1.759209,0.75719 -1.973829,0.91652 l -1.75746,-0.96405 c 3.18171,-0.44506 11.795289,-5.96486 17.665569,-11.52109 4.10356,-3.884 7.57974,-6.42158 8.79994,-6.42158 1.11866,0 3.6985,1.68146 5.79154,3.77453 2.07558,2.07558 4.46542,4.1447 5.31048,4.59693 1.65777,0.88724 4.82858,-0.41433 8.994176,-3.69099 1.7464,-1.37366 3.78424,-1.8918 7.45281,-1.8918 5.51576,0 7.80649,-0.87154 11.61401,-4.42084 z m -42.553216,31.39747 c 2.69722,-0.014 5.16355,2.09079 8.81628,6.30719 8.35624,9.64576 15.538316,11.37943 29.146676,7.03343 9.41704,-3.00752 12.45147,-2.91726 20.492,0.61183 3.66443,1.60835 8.75448,3.66998 11.31082,4.58059 2.43987,0.86912 5.97988,1.52038 6.39828,1.59736 l 0.89687,1.63578 c -0.81965,-0.32849 -3.0315,-0.5486 -3.95637,-0.80574 -2.99294,-0.83212 -8.6286,-2.96535 -12.5236,-4.74037 -7.37871,-3.36257 -8.79678,-3.13933 -4.62601,0.72802 2.59027,2.40175 2.51424,4.81271 -0.1834,5.84787 -2.26747,0.8701 -4.81636,-2.09329 -3.54757,-4.12492 1.15752,-1.8535 0.20307,-5.28356 -1.66846,-5.99493 -2.07309,-0.78792 -7.28213,0.34711 -7.28213,1.58678 0,0.63991 0.8766,2.27808 1.94805,3.64018 3.0548,3.88359 -0.21993,8.26575 -3.62926,4.85656 -1.26535,-1.26535 -1.3341,-1.85955 -0.39215,-3.36784 1.25969,-2.01708 1.54609,-5.58208 0.44664,-5.561 -0.38344,0.007 -2.57952,0.57551 -4.8802,1.26 -3.43996,1.02346 -4.2354,1.68104 -4.47712,3.70371 -0.16161,1.35279 0.15213,2.46004 0.69718,2.46004 1.25969,0 1.30431,4.34267 0.0527,5.11622 -1.62114,1.00192 -4.63873,-0.51814 -4.63873,-2.33661 0,-0.9579 0.41832,-1.999 0.92958,-2.31484 0.51125,-0.31585 0.92954,-1.49241 0.92954,-2.61255 0,-1.73317 -0.5193,-2.03641 -3.48584,-2.03887 -1.9172,-0.002 -4.63617,-0.32357 -6.04212,-0.7153 -1.979286,-0.55127 -2.556266,-0.39254 -2.556266,0.70079 0,0.77662 0.41829,1.41249 0.92954,1.41249 1.526166,0 1.05089,4.65921 -0.53739,5.2687 -0.80651,0.30952 -2.15786,-0.12999 -3.00291,-0.97494 -1.26535,-1.26535 -1.33407,-1.85955 -0.39215,-3.36784 1.83614,-2.94009 1.3934,-4.04231 -3.14271,-7.83406 l -4.2847,-3.58204 0.60822,2.7723 c 0.69166,3.14906 -1.06839,5.32877 -3.53847,4.38092 -2.12434,-0.81515 -1.93508,-4.76946 0.26139,-5.4666 2.8837,-0.91528 2.90907,-2.89969 0.0745,-5.61546 -1.77734,-1.70278 -3.65304,-2.52331 -5.56645,-2.46007 -1.48823,0.0492 -2.99806,0.63348 -4.50256,1.75562 -3.3301,2.4839 -3.51764,4.40303 -0.66991,6.87909 2.67741,2.32797 2.98246,3.80158 1.10746,5.35769 -2.24517,1.86334 -4.36733,0.20482 -4.13581,-3.2317 0.11524,-1.71202 -0.0562,-3.37873 -0.38126,-3.70371 -0.80732,-0.80731 -8.14994,5.19422 -8.14994,6.66126 0,0.64687 0.83658,1.44189 1.85912,1.76652 2.21186,0.70202 2.54854,4.64881 0.46478,5.44844 -2.80863,1.07777 -4.41139,-0.42409 -3.88889,-3.64381 0.27087,-1.66807 0.29476,-3.22916 0.0544,-3.46947 -0.53764,-0.53761 -7.39574,1.42987 -8.36601,2.40013 -0.38699,0.38696 -0.72728,2.0525 -0.7589,3.70188 -0.0471,2.55989 -0.39282,2.99926 -2.36564,2.99926 -3.18535,0 -3.65596,-3.05638 -0.80791,-5.24688 l 2.18955,-1.68483 -3.967166,-0.21421 c -0.24453,-0.002 -0.5075,0.0246 -0.78431,0.0798 l 0.92775,-1.3217 c 0.87706,0.56349 10.907946,-1.38502 13.694826,-2.82614 1.59489,-0.82481 5.50619,-3.92557 8.69278,-6.89001 4.57806,-4.25898 7.50613,-6.39133 10.20335,-6.40521 z m 13.56754,39.99275 c 3.67749,-0.14194 7.828656,1.23359 14.832956,4.03592 6.75151,2.70123 9.30799,3.25349 15.0708,3.25349 6.37162,0 16.81995,-2.05012 23.38235,-4.58608 l 3.90804,-1.53431 1.00582,1.77196 c 0,0 -3.35059,0.42826 -4.33108,0.7701 -3.27701,1.14238 -3.72151,3.93936 -0.86781,5.46662 2.77679,1.48608 2.07926,5.08168 -0.98583,5.08168 -2.10678,0 -2.3239,-0.36001 -2.3239,-3.87073 0,-2.12975 -0.21572,-4.08799 -0.47932,-4.35184 -0.26314,-0.26385 -2.87766,0.18796 -5.80971,1.004 -5.81118,1.61745 -6.74582,3.27111 -3.4459,6.09657 1.51026,1.2931 1.68852,1.98121 0.89688,3.46044 -0.5434,1.01538 -1.7805,1.84641 -2.75056,1.84641 -2.23915,0 -3.24985,-3.05441 -1.7865,-5.3976 1.43152,-2.29221 0.39387,-5.21874 -1.58133,-4.46078 -0.80437,0.30846 -3.10209,0.561 -5.1053,0.561 -3.90536,0 -4.6148,1.25716 -2.56536,4.53885 1.52526,2.44233 0.33657,4.75853 -2.44188,4.75853 -1.87504,0 -2.35295,-0.46133 -2.35295,-2.26944 0,-1.24795 0.41829,-2.52728 0.92955,-2.84313 0.51125,-0.31584 0.92958,-1.51057 0.92958,-2.65432 0,-1.65943 -0.89203,-2.36971 -4.41539,-3.5167 -2.42849,-0.79056 -5.14742,-1.75872 -6.04215,-2.1496 -1.25105,-0.54657 -1.62672,-0.26947 -1.62672,1.19462 0,1.04707 0.41832,2.16054 0.92958,2.47638 2.72761,1.68578 -0.10224,6.55161 -2.93029,5.03816 -1.90445,-1.01924 -2.26425,-3.65442 -0.7099,-5.2088 0.55454,-0.55454 0.86827,-1.98097 0.69718,-3.16994 -0.23961,-1.66505 -1.26728,-2.4371 -4.473506,-3.36239 -1.67865,-0.48445 -3.54024,-0.70898 -5.21059,-0.70807 -2.78393,0.001 -5.03535,0.62583 -5.01996,1.70479 0.0211,1.57462 1.17586,2.97923 3.00653,3.6547 1.99333,0.73551 2.12487,3.73441 0.23223,5.30503 -1.83302,1.52129 -4.33996,-0.40484 -4.12671,-3.17176 0.27263,-3.53936 -0.0457,-5.19426 -1.00037,-5.19426 -0.51912,0 -3.20946,1.50562 -5.97856,3.34423 -5.13256,3.40782 -5.70111,5.05162 -2.56174,7.40738 2.10206,1.57739 0.99787,4.58789 -1.68301,4.58789 -2.15716,0 -2.2934,-0.28036 -2.0552,-4.18481 l 0.25401,-4.1812 -4.90195,0.12718 c -4.88188,0.12718 -4.90377,0.13843 -4.90377,3.14088 0,3.80949 -2.51888,5.76544 -4.66413,3.6202 -1.58987,-1.58987 -0.97357,-4.56608 0.94588,-4.56608 0.99802,0 2.90422,-2.84443 2.11331,-3.1536 -0.13983,-0.0548 -2.60292,-1.3082 -5.47387,-2.78685 -5.87088,-3.02367 -7.79152,-2.64698 -6.988,1.37072 0.69402,3.47004 -1.53615,5.92073 -4.12491,4.53523 -2.48245,-1.32855 -2.24285,-3.20067 0.68084,-5.33043 1.64552,-1.19877 2.27812,-2.3153 1.88814,-3.33151 -0.51789,-1.34963 -3.14778,-2.412 -5.23197,-1.88979 l 1.59405,-1.63399 c 0.237145,-0.24309 1.92478,1.06553 2.92624,1.06553 0.98537,0 4.52068,1.42246 7.85584,3.16087 3.3352,1.73844 7.23449,3.60991 8.66556,4.15759 4.45822,1.70616 9.14922,0.56132 16.21279,-3.9579 5.11028,-3.26953 8.31415,-4.92889 11.99165,-5.07079 z"
       sodipodi:nodetypes="cccsssssscssssssssssccsssssssssccssssssccsssssccsssssssssscsssssssssssssscccssssssssssssssscscccccssssssccccssssssssssssssssssscssssscssssssscccsssssssssccssssscs" />
  </g>
</svg>
